<svg width="1351" height="1351" viewBox="0 0 1351 1351" fill="none" xmlns="http://www.w3.org/2000/svg">
<g clip-path="url(#clip0_24_22)">
<path d="M0 797.898L675.5 412.054L1352.62 797.898L675.5 1185.5L0 797.898Z" fill="#FEC611"/>
<path d="M676.208 189.147C690.992 189.451 699.767 199.241 704.271 206.364C708.54 213.116 711.706 221.782 713.86 227.248C716.48 233.895 718.433 238.257 720.563 241.228C721.504 242.54 722.151 243.09 722.43 243.289C722.609 243.417 722.678 243.444 722.879 243.479C723.143 243.525 724.14 243.768 726.965 241.973C730.162 239.942 733.818 236.473 738.522 231.296C742.434 226.993 748.293 220.034 753.414 215.186C758.049 210.798 767.415 202.65 780.202 202.65C795.42 202.65 807.116 211.478 814.839 219.249C822.899 227.359 829.909 237.649 835.731 246.952C838.708 251.707 841.559 256.512 844.182 260.939C846.855 265.452 849.255 269.509 851.534 273.152C853.83 276.822 855.738 279.639 857.338 281.69C858.484 283.159 859.117 283.772 859.244 283.901C874.567 294.036 899.879 303.533 933.808 315.718C966.83 327.578 1006.16 341.417 1045.43 360.064C1124.08 397.403 1205.68 455.469 1241.82 560.845C1265.13 628.783 1266 735.636 1186.83 825.379C1107.95 914.801 953.392 982.852 675.5 982.852C397.603 982.852 242.861 914.799 163.77 825.401C84.3941 735.681 85.0277 628.827 108.344 560.845C144.485 455.469 226.084 397.403 304.734 360.064C344.013 341.417 383.337 327.578 416.359 315.718C450.288 303.533 475.6 294.036 490.923 283.901C491.049 283.772 491.683 283.16 492.83 281.69C494.43 279.639 496.338 276.822 498.634 273.152C500.913 269.509 503.313 265.452 505.986 260.939C508.609 256.512 511.46 251.707 514.437 246.952C520.259 237.649 527.269 227.359 535.329 219.249C543.052 211.478 554.748 202.65 569.966 202.65L570.692 202.661C578.145 202.883 583.732 206.463 586.34 208.31C589.533 210.571 592.423 213.32 594.727 215.648C597.108 218.055 599.603 220.778 601.882 223.26C604.261 225.851 606.551 228.34 608.916 230.757C613.78 235.73 618.015 239.401 621.763 241.602C625.375 243.723 626.916 243.544 627.289 243.479C627.502 243.442 627.611 243.404 627.844 243.239C628.174 243.005 628.864 242.414 629.849 241.069C632.063 238.043 634.102 233.632 636.828 226.987C639.081 221.494 642.372 212.875 646.728 206.163C651.363 199.019 660.38 189.14 675.5 189.14L676.208 189.147Z" fill="#FFD2FF" stroke="#F32D00" stroke-width="40.53" stroke-linecap="round" stroke-linejoin="bevel"/>
<path d="M579.275 364.472C514.037 383.873 490.673 477.394 512.147 505.015" stroke="#F32D00" stroke-width="27.02" stroke-linecap="round"/>
<path d="M674.423 364.127C633.329 412.49 671.568 502.55 705.895 515.204" stroke="#F32D00" stroke-width="27.02" stroke-linecap="round"/>
<path d="M787.052 364.127C777.684 423.173 851.716 474.685 885.198 467.178" stroke="#F32D00" stroke-width="27.02" stroke-linecap="round"/>
</g>
<defs>
<clipPath id="clip0_24_22">
<rect width="1351" height="1351" fill="white"/>
</clipPath>
</defs>
</svg>
