<svg width="200" height="200" viewBox="0 0 200 200" fill="none" xmlns="http://www.w3.org/2000/svg">
<g clip-path="url(#clip0_3_2)">
<path d="M0 118.12L100 61L200.24 118.12L100 175.5L0 118.12Z" fill="#DB943A"/>
<path d="M99.9995 28C102.252 28 103.582 29.4786 104.259 30.5498C104.891 31.5494 105.36 32.8325 105.679 33.6416C106.067 34.6256 106.356 35.2711 106.671 35.7109C106.811 35.9052 106.907 35.9872 106.948 36.0166C106.974 36.0353 106.985 36.0388 107.014 36.0439C107.054 36.0508 107.201 36.0866 107.619 35.8213C108.092 35.5206 108.633 35.0073 109.33 34.2412C109.909 33.6042 110.777 32.5732 111.535 31.8555C112.221 31.2058 113.607 30.0002 115.5 30C117.752 30 119.484 31.3067 120.627 32.457C121.821 33.6578 122.858 35.1814 123.72 36.5586C124.161 37.2626 124.583 37.9736 124.971 38.6289C125.367 39.297 125.723 39.8982 126.06 40.4375C126.4 40.9807 126.683 41.3977 126.919 41.7012C127.079 41.9055 127.171 41.9983 127.197 42.0244C129.465 43.526 133.213 44.933 138.24 46.7383C143.128 48.494 148.949 50.5432 154.764 53.3037C166.407 58.8312 178.487 67.4269 183.837 83.0264C187.287 93.0838 187.417 108.902 175.697 122.188C164.018 135.425 141.138 145.5 99.9995 145.5C58.8607 145.5 35.9532 135.426 24.2447 122.191C12.494 108.909 12.5879 93.0903 16.0396 83.0264C21.39 67.4269 33.4696 58.8312 45.1128 53.3037C50.9275 50.5432 56.7488 48.494 61.6372 46.7383C66.6632 44.9332 70.4113 43.5259 72.6792 42.0244C72.7048 41.9989 72.7972 41.9066 72.9575 41.7012C73.1943 41.3977 73.4771 40.9807 73.8169 40.4375C74.1543 39.8982 74.5099 39.297 74.9058 38.6289C75.2941 37.9736 75.7162 37.2625 76.1568 36.5586C77.0187 35.1815 78.0563 33.6578 79.2495 32.457C80.3927 31.3068 82.124 30.0001 84.3765 30C85.5335 30 86.4028 30.5557 86.8013 30.8379C87.2738 31.1726 87.7015 31.5793 88.0425 31.9238C88.3951 32.2801 88.7647 32.6834 89.1021 33.0508C89.4542 33.4343 89.793 33.8032 90.1431 34.1611C90.863 34.8972 91.4897 35.4408 92.0445 35.7666C92.5791 36.0806 92.8074 36.0536 92.8628 36.0439C92.8943 36.0385 92.9104 36.0331 92.9448 36.0088C92.9937 35.9743 93.096 35.8866 93.2417 35.6875C93.5695 35.2395 93.8714 34.5862 94.2749 33.6025C94.6084 32.7895 95.0961 31.5141 95.7407 30.5205C96.4269 29.4631 97.7615 28.0002 99.9995 28Z" fill="#FFF6ED" stroke="#BB353C" stroke-width="6" stroke-linecap="round" stroke-linejoin="bevel"/>
<path d="M85.755 53.956C76.0972 56.8281 72.6385 70.6727 75.8175 74.7617" stroke="#BB353C" stroke-width="4" stroke-linecap="round"/>
<path d="M99.8405 53.9049C93.7571 61.0645 99.4178 74.3968 104.5 76.2701" stroke="#BB353C" stroke-width="4" stroke-linecap="round"/>
<path d="M116.514 53.9049C115.127 62.6459 126.087 70.2717 131.043 69.1605" stroke="#BB353C" stroke-width="4" stroke-linecap="round"/>
</g>
<defs>
<clipPath id="clip0_3_2">
<rect width="200" height="200" fill="white"/>
</clipPath>
</defs>
</svg>
